<?xml version="1.0" encoding="utf-8"?>
<!-- Generator: Adobe Illustrator 15.1.0, SVG Export Plug-In . SVG Version: 6.00 Build 0)  -->
<!DOCTYPE svg PUBLIC "-//W3C//DTD SVG 1.1//EN" "http://www.w3.org/Graphics/SVG/1.1/DTD/svg11.dtd">
<svg version="1.1" xmlns="http://www.w3.org/2000/svg" xmlns:xlink="http://www.w3.org/1999/xlink" x="0px" y="0px"
	 width="209.523px" height="195.918px" viewBox="0 0 209.523 195.918" enable-background="new 0 0 209.523 195.918"
	 xml:space="preserve">
<g id="Layer_1">
</g>
<g id="headphone">
	<g>
		<path fill="#E84C3D" d="M310.955,157.273h-4.666v8.032h-7.979v-8.032h-16.013v-5.701l16.464-25.025h7.528v24.363h4.666V157.273z
			 M298.31,150.91v-6.573c0-0.23,0.005-0.562,0.013-0.995c0.01-0.433,0.022-0.923,0.041-1.472c0.017-0.547,0.039-1.113,0.066-1.696
			c0.025-0.583,0.053-1.141,0.079-1.67c0.026-0.53,0.054-0.995,0.079-1.394c0.027-0.396,0.049-0.684,0.066-0.86h-0.238
			c-0.318,0.742-0.676,1.529-1.074,2.359c-0.397,0.83-0.853,1.662-1.365,2.492l-6.469,9.809H298.31z"/>
		<path fill="#E84C3D" d="M340.33,145.927c0,3.128-0.244,5.92-0.729,8.378c-0.486,2.456-1.264,4.542-2.334,6.255
			c-1.068,1.716-2.447,3.024-4.135,3.925c-1.689,0.902-3.727,1.352-6.111,1.352c-2.246,0-4.198-0.449-5.859-1.352
			c-1.662-0.9-3.04-2.209-4.137-3.925c-1.096-1.713-1.912-3.799-2.451-6.255c-0.539-2.458-0.809-5.25-0.809-8.378
			c0-3.129,0.242-5.93,0.729-8.404s1.26-4.569,2.32-6.282c1.06-1.716,2.43-3.027,4.109-3.938c1.678-0.909,3.711-1.365,6.098-1.365
			c2.227,0,4.17,0.451,5.832,1.354c1.66,0.9,3.049,2.209,4.164,3.923c1.111,1.715,1.941,3.809,2.49,6.284
			C340.057,139.97,340.33,142.781,340.33,145.927z M321.931,145.927c0,4.418,0.38,7.742,1.14,9.968
			c0.76,2.227,2.076,3.342,3.951,3.342c1.838,0,3.158-1.105,3.963-3.315c0.805-2.209,1.205-5.54,1.205-9.994
			c0-4.436-0.4-7.771-1.205-10.008s-2.125-3.354-3.963-3.354c-0.938,0-1.729,0.283-2.373,0.848c-0.646,0.565-1.172,1.404-1.578,2.52
			c-0.406,1.113-0.698,2.504-0.875,4.175C322.02,141.777,321.931,143.718,321.931,145.927z"/>
		<path fill="#E84C3D" d="M370.766,157.273h-4.668v8.032h-7.979v-8.032h-16.012v-5.701l16.463-25.025h7.527v24.363h4.668V157.273z
			 M358.119,150.91v-6.573c0-0.23,0.004-0.562,0.012-0.995c0.012-0.433,0.023-0.923,0.041-1.472
			c0.018-0.547,0.041-1.113,0.066-1.696c0.027-0.583,0.053-1.141,0.08-1.67c0.025-0.53,0.053-0.995,0.078-1.394
			c0.029-0.396,0.049-0.684,0.068-0.86h-0.238c-0.32,0.742-0.678,1.529-1.074,2.359c-0.398,0.83-0.854,1.662-1.365,2.492
			l-6.469,9.809H358.119z"/>
	</g>
	<g>
		<g>
			<g>
				<path fill="#FFFFFF" d="M22.865,120.89h-6.552c0,0-6.552,0-6.552,6.552s0,32.759,0,32.759s0,6.552,6.552,6.552s6.552,0,6.552,0
					V120.89z"/>
				<path fill="#9DF1F5" d="M22.865,107.786v72.069c0,0,0,13.104,13.104,13.104s13.104,0,13.104,0v-85.173V94.683H35.969
					C35.969,94.683,22.865,94.683,22.865,107.786z"/>
				<rect x="49.072" y="94.683" fill="#3B3141" width="6.552" height="98.276"/>
				<path fill="#434343" d="M186.658,120.89h6.552c0,0,6.552,0,6.552,6.552s0,32.759,0,32.759s0,6.552-6.552,6.552s-6.552,0-6.552,0
					V120.89z"/>
				<path fill="#9DF1F5" d="M186.658,107.786v72.069c0,0,0,13.104-13.104,13.104s-13.104,0-13.104,0v-85.173V94.683h13.104
					C173.555,94.683,186.658,94.683,186.658,107.786z"/>
				<rect x="153.899" y="94.683" fill="#3B3141" width="6.552" height="98.276"/>
				<path fill="#434343" d="M206.288,101.234c-1.729-54.568-46.506-98.275-101.493-98.275c-54.988,0-99.764,43.707-101.493,98.275
					H3.21v45.861h6.552V101.89h0.071c1.388-51.255,43.372-92.379,94.962-92.379s93.574,41.124,94.963,92.379h0.004v45.206h6.552
					v-45.861H206.288z"/>
			</g>
			<path fill="#434343" d="M22.865,120.89h-6.552c0,0-6.552,0-6.552,6.552s0,32.759,0,32.759s0,6.552,6.552,6.552s6.552,0,6.552,0
				V120.89z"/>
			<path fill="#E84C3D" d="M22.865,107.786v72.069c0,0,0,13.104,13.104,13.104s13.104,0,13.104,0v-85.173V94.683H35.969
				C35.969,94.683,22.865,94.683,22.865,107.786z"/>
			<rect x="49.072" y="94.683" fill="#434343" width="6.552" height="98.276"/>
			<path fill="#E84C3D" d="M186.658,107.786v72.069c0,0,0,13.104-13.104,13.104s-13.104,0-13.104,0v-85.173V94.683h13.104
				C173.555,94.683,186.658,94.683,186.658,107.786z"/>
			<rect x="153.899" y="94.683" fill="#434343" width="6.552" height="98.276"/>
			<path fill="#434343" d="M206.288,101.234c-1.729-54.568-46.506-98.275-101.493-98.275c-54.988,0-99.764,43.707-101.493,98.275
				H3.21v45.861h6.552V101.89h0.071c1.388-51.255,43.372-92.379,94.962-92.379s93.574,41.124,94.963,92.379h0.004v45.206h6.552
				v-45.861H206.288z"/>
		</g>
		<g>
			<path fill="#E84C3D" d="M82.194,60.833c0,1.862-0.218,3.559-0.653,5.09s-1.099,2.843-1.991,3.933
				c-0.893,1.091-2.02,1.934-3.38,2.529s-2.967,0.892-4.817,0.892c-1.852,0-3.457-0.297-4.817-0.892s-2.485-1.438-3.371-2.529
				c-0.888-1.09-1.549-2.404-1.983-3.941c-0.436-1.537-0.653-3.242-0.653-5.115c0-1.874,0.218-3.572,0.653-5.099
				c0.435-1.526,1.099-2.829,1.991-3.908c0.893-1.08,2.02-1.915,3.38-2.504s2.972-0.884,4.834-0.884c1.851,0,3.454,0.295,4.81,0.884
				c1.354,0.589,2.476,1.427,3.363,2.512c0.887,1.085,1.547,2.391,1.982,3.917C81.977,57.244,82.194,58.949,82.194,60.833z
				 M65.8,60.833c0,1.267,0.109,2.404,0.33,3.413c0.221,1.008,0.56,1.862,1.017,2.562s1.033,1.237,1.728,1.611
				c0.693,0.375,1.521,0.563,2.479,0.563c0.98,0,1.82-0.188,2.521-0.563c0.699-0.374,1.272-0.911,1.719-1.611
				s0.776-1.554,0.991-2.562c0.215-1.008,0.322-2.146,0.322-3.413c0-1.267-0.107-2.405-0.322-3.413s-0.545-1.865-0.991-2.57
				s-1.017-1.245-1.711-1.62s-1.525-0.562-2.495-0.562c-0.958,0-1.791,0.188-2.495,0.562c-0.706,0.375-1.287,0.915-1.744,1.62
				s-0.796,1.562-1.017,2.57S65.8,59.566,65.8,60.833z"/>
			<path fill="#E84C3D" d="M102.721,63.676c0,1.543-0.196,2.909-0.587,4.099c-0.392,1.19-0.953,2.192-1.686,3.008
				c-0.733,0.815-1.626,1.435-2.678,1.859c-1.052,0.424-2.234,0.636-3.545,0.636c-1.223,0-2.347-0.212-3.371-0.636
				c-1.024-0.424-1.909-1.044-2.653-1.859c-0.743-0.815-1.324-1.818-1.743-3.008s-0.628-2.556-0.628-4.099
				c0-1.531,0.195-2.892,0.587-4.082c0.391-1.19,0.952-2.19,1.686-3c0.732-0.81,1.622-1.423,2.669-1.842s2.231-0.628,3.553-0.628
				c1.224,0,2.348,0.209,3.372,0.628s1.908,1.033,2.652,1.842c0.744,0.81,1.325,1.81,1.743,3
				C102.511,60.784,102.721,62.145,102.721,63.676z M90.986,63.676c0,1.84,0.259,3.226,0.777,4.156
				c0.518,0.932,1.36,1.396,2.527,1.396c1.157,0,1.994-0.468,2.513-1.404c0.518-0.937,0.776-2.32,0.776-4.148
				c0-1.84-0.259-3.214-0.776-4.124c-0.519-0.909-1.366-1.364-2.545-1.364c-1.157,0-1.992,0.455-2.504,1.364
				C91.243,60.461,90.986,61.835,90.986,63.676z"/>
			<path fill="#E84C3D" d="M116.784,73.277c-0.605,0-1.147-0.065-1.627-0.198c-0.479-0.132-0.906-0.308-1.28-0.529
				c-0.376-0.22-0.706-0.471-0.992-0.752c-0.287-0.281-0.546-0.575-0.776-0.884h-0.265c0.044,0.386,0.088,0.749,0.132,1.091
				c0.033,0.287,0.063,0.581,0.091,0.884c0.027,0.302,0.042,0.537,0.042,0.702v7.486h-5.042V54.471h4.1l0.71,2.396h0.232
				c0.23-0.375,0.496-0.727,0.793-1.058s0.642-0.62,1.033-0.868c0.391-0.248,0.834-0.446,1.33-0.595
				c0.496-0.149,1.047-0.224,1.652-0.224c0.958,0,1.828,0.204,2.611,0.612c0.782,0.408,1.454,1.014,2.017,1.818
				c0.562,0.805,0.996,1.802,1.306,2.991c0.308,1.19,0.463,2.567,0.463,4.132c0,1.575-0.161,2.961-0.479,4.156
				c-0.319,1.195-0.769,2.198-1.347,3.008c-0.579,0.81-1.268,1.419-2.066,1.826C118.621,73.074,117.744,73.277,116.784,73.277z
				 M115.215,58.156c-0.563,0-1.039,0.102-1.43,0.305c-0.391,0.204-0.707,0.51-0.95,0.917c-0.242,0.408-0.419,0.923-0.529,1.545
				c-0.11,0.622-0.176,1.347-0.197,2.173v0.545c0,0.893,0.052,1.686,0.157,2.38c0.104,0.694,0.277,1.276,0.521,1.744
				c0.241,0.469,0.564,0.824,0.967,1.066c0.401,0.243,0.899,0.363,1.495,0.363c1.002,0,1.737-0.476,2.206-1.429
				c0.468-0.953,0.702-2.338,0.702-4.157c0-1.817-0.234-3.181-0.702-4.09C116.985,58.61,116.239,58.156,115.215,58.156z"/>
			<path fill="#E84C3D" d="M139.955,67.46c0,0.97-0.177,1.818-0.529,2.545s-0.854,1.333-1.503,1.818
				c-0.65,0.485-1.438,0.849-2.364,1.091c-0.925,0.242-1.961,0.363-3.107,0.363c-0.604,0-1.167-0.019-1.685-0.058
				c-0.519-0.039-1.009-0.102-1.472-0.19s-0.908-0.198-1.338-0.331c-0.431-0.132-0.865-0.297-1.306-0.496v-4.165
				c0.463,0.231,0.95,0.441,1.462,0.628c0.513,0.188,1.022,0.35,1.529,0.488s1,0.245,1.479,0.322
				c0.479,0.077,0.923,0.115,1.33,0.115c0.452,0,0.838-0.041,1.157-0.123c0.319-0.083,0.581-0.199,0.786-0.348
				c0.203-0.148,0.352-0.325,0.445-0.529c0.093-0.204,0.141-0.421,0.141-0.653s-0.036-0.438-0.107-0.62
				c-0.071-0.182-0.234-0.375-0.487-0.578c-0.254-0.204-0.626-0.435-1.115-0.694c-0.491-0.259-1.149-0.575-1.976-0.95
				c-0.805-0.363-1.502-0.724-2.091-1.083s-1.074-0.757-1.454-1.199c-0.381-0.44-0.664-0.944-0.851-1.512
				c-0.188-0.567-0.281-1.242-0.281-2.024c0-0.86,0.166-1.611,0.496-2.256c0.33-0.645,0.799-1.182,1.404-1.611
				s1.336-0.752,2.19-0.967c0.853-0.215,1.804-0.322,2.851-0.322c1.101,0,2.148,0.127,3.14,0.38c0.991,0.254,2.01,0.634,3.058,1.141
				l-1.521,3.569c-0.837-0.396-1.636-0.722-2.396-0.975c-0.761-0.253-1.521-0.38-2.28-0.38c-0.684,0-1.177,0.121-1.479,0.363
				c-0.304,0.243-0.454,0.573-0.454,0.992c0,0.221,0.038,0.416,0.115,0.587s0.231,0.347,0.463,0.529s0.557,0.38,0.976,0.595
				c0.418,0.215,0.963,0.476,1.636,0.785c0.781,0.342,1.487,0.681,2.115,1.016c0.628,0.336,1.168,0.719,1.619,1.149
				c0.452,0.43,0.799,0.931,1.042,1.504C139.834,65.951,139.955,66.645,139.955,67.46z"/>
			<path fill="#E84C3D" d="M143.211,70.583c0-0.517,0.074-0.955,0.224-1.313c0.148-0.358,0.354-0.647,0.619-0.868
				s0.572-0.38,0.926-0.479c0.353-0.099,0.732-0.148,1.141-0.148c0.386,0,0.751,0.05,1.099,0.148
				c0.347,0.099,0.652,0.259,0.918,0.479c0.264,0.221,0.474,0.51,0.627,0.868c0.154,0.358,0.232,0.796,0.232,1.313
				c0,0.497-0.078,0.92-0.232,1.273c-0.153,0.353-0.363,0.645-0.627,0.876c-0.266,0.231-0.571,0.399-0.918,0.504
				c-0.348,0.105-0.713,0.157-1.099,0.157c-0.408,0-0.788-0.052-1.141-0.157c-0.354-0.104-0.661-0.272-0.926-0.504
				s-0.471-0.523-0.619-0.876C143.285,71.504,143.211,71.08,143.211,70.583z M148.152,64.932h-4.033l-0.842-16.146h5.719
				L148.152,64.932z"/>
		</g>
		<g>
			<path fill="#E84C3D" d="M74.529,139.777c1.713,0,3.309,0.266,4.786,0.793c1.475,0.528,2.762,1.304,3.854,2.324
				c1.094,1.022,1.952,2.293,2.571,3.816c0.619,1.521,0.93,3.268,0.93,5.237c0,2.169-0.338,4.115-1.012,5.838
				c-0.676,1.724-1.668,3.182-2.98,4.375c-1.313,1.194-2.94,2.111-4.882,2.748c-1.942,0.639-4.17,0.957-6.686,0.957
				c-1.003,0-1.998-0.044-2.981-0.136c-0.985-0.093-1.929-0.224-2.831-0.396c-0.901-0.174-1.76-0.396-2.57-0.671
				c-0.812-0.272-1.545-0.591-2.201-0.957v-7.302c0.638,0.364,1.377,0.708,2.216,1.026c0.836,0.318,1.709,0.593,2.611,0.821
				c0.902,0.228,1.808,0.408,2.721,0.546c0.911,0.137,1.776,0.206,2.598,0.206c2.442,0,4.303-0.507,5.578-1.519
				c1.277-1.012,1.914-2.62,1.914-4.826c0-1.969-0.625-3.47-1.872-4.499c-1.249-1.03-3.178-1.545-5.785-1.545
				c-0.474,0-0.98,0.026-1.517,0.082c-0.537,0.055-1.066,0.127-1.587,0.219c-0.52,0.091-1.017,0.186-1.489,0.287
				c-0.475,0.101-0.885,0.205-1.231,0.314l-3.363-1.807l1.504-20.372h21.112v7.165H70.154l-0.656,7.849
				c0.582-0.128,1.261-0.255,2.036-0.384C72.309,139.841,73.307,139.777,74.529,139.777z"/>
			<path fill="#E84C3D" d="M118.147,145.329c0,3.228-0.251,6.107-0.752,8.643c-0.502,2.533-1.304,4.685-2.408,6.452
				c-1.102,1.77-2.524,3.119-4.266,4.048c-1.74,0.931-3.842,1.395-6.303,1.395c-2.316,0-4.33-0.464-6.044-1.395
				c-1.715-0.929-3.136-2.278-4.266-4.048c-1.131-1.768-1.975-3.919-2.53-6.452c-0.556-2.535-0.833-5.415-0.833-8.643
				c0-3.227,0.249-6.116,0.752-8.669c0.501-2.553,1.299-4.713,2.392-6.48c1.094-1.77,2.507-3.123,4.239-4.063
				c1.732-0.938,3.828-1.408,6.29-1.408c2.298,0,4.303,0.465,6.017,1.396c1.713,0.93,3.144,2.279,4.294,4.047
				c1.148,1.769,2.005,3.929,2.57,6.482C117.864,139.185,118.147,142.084,118.147,145.329z M99.167,145.329
				c0,4.558,0.394,7.986,1.177,10.283c0.784,2.296,2.143,3.446,4.075,3.446c1.896,0,3.259-1.14,4.088-3.42
				c0.83-2.279,1.244-5.715,1.244-10.31c0-4.575-0.414-8.017-1.244-10.323c-0.829-2.308-2.191-3.459-4.088-3.459
				c-0.967,0-1.782,0.292-2.447,0.874c-0.667,0.584-1.208,1.449-1.628,2.599c-0.419,1.148-0.72,2.583-0.902,4.307
				C99.26,141.05,99.167,143.051,99.167,145.329z"/>
			<path fill="#E84C3D" d="M148.996,145.329c0,3.228-0.252,6.107-0.752,8.643c-0.503,2.533-1.305,4.685-2.408,6.452
				c-1.103,1.77-2.524,3.119-4.266,4.048c-1.741,0.931-3.843,1.395-6.304,1.395c-2.316,0-4.329-0.464-6.044-1.395
				c-1.714-0.929-3.135-2.278-4.266-4.048c-1.13-1.768-1.975-3.919-2.529-6.452c-0.556-2.535-0.834-5.415-0.834-8.643
				c0-3.227,0.25-6.116,0.752-8.669c0.501-2.553,1.299-4.713,2.393-6.48c1.093-1.77,2.507-3.123,4.238-4.063
				c1.732-0.938,3.829-1.408,6.29-1.408c2.298,0,4.303,0.465,6.017,1.396c1.713,0.93,3.145,2.279,4.294,4.047
				c1.148,1.769,2.005,3.929,2.571,6.482C148.713,139.185,148.996,142.084,148.996,145.329z M130.016,145.329
				c0,4.558,0.393,7.986,1.177,10.283c0.783,2.296,2.143,3.446,4.074,3.446c1.896,0,3.259-1.14,4.089-3.42
				c0.829-2.279,1.243-5.715,1.243-10.31c0-4.575-0.414-8.017-1.243-10.323c-0.83-2.308-2.192-3.459-4.089-3.459
				c-0.966,0-1.781,0.292-2.447,0.874c-0.667,0.584-1.208,1.449-1.627,2.599c-0.42,1.148-0.721,2.583-0.902,4.307
				C130.107,141.05,130.016,143.051,130.016,145.329z"/>
		</g>
	</g>
</g>
</svg>
