<svg width="22" height="24" viewBox="0 0 22 24" fill="none" xmlns="http://www.w3.org/2000/svg">
<path d="M21.995 6.28974C21.995 6.28109 22 6.27533 22 6.26668C22 6.22634 21.995 6.18599 21.995 6.14853V1.37636C21.995 1.07954 21.7691 0.797128 21.506 0.80001H21.4986C21.4712 0.802891 21.439 0.805773 21.4117 0.811537L19.9893 0.984442L16.3674 1.42535C14.9078 1.60402 13.4473 1.78172 11.986 1.95847C10.725 2.1112 9.46225 2.2649 8.19789 2.41955C7.58474 2.49448 6.97158 2.56364 6.35843 2.64433C6.3485 2.64433 6.35099 2.64721 6.34354 2.64721C6.07544 2.67891 5.85699 2.88639 5.85699 3.22356V16.3845C5.38236 16.0234 4.84499 15.7883 4.28315 15.6958C4.08259 15.6608 3.88023 15.6416 3.67745 15.6381H3.66752C2.20539 15.6381 0.780492 16.5689 0.212024 18.1741C-0.0412873 18.9064 -0.0684774 19.7179 0.135069 20.4708C0.356002 21.2662 0.802833 21.9203 1.37875 22.4102C2.56782 23.4246 4.26329 23.4938 5.55414 22.7071C6.15239 22.3411 6.68114 21.7618 6.99393 21.0616C7.14738 20.7221 7.25298 20.3563 7.30671 19.978C7.32408 19.8455 7.3216 19.7129 7.34642 19.5804V9.54611C7.34642 9.22047 7.34394 8.89195 7.34394 8.56344L7.84539 8.50292L11.4647 8.06201C12.9244 7.88623 14.384 7.70852 15.8437 7.52889C17.1072 7.37616 18.3732 7.22054 19.6343 7.06781C19.9222 7.03323 20.2027 6.99865 20.5006 6.96407V16.3989C20.0277 16.0414 19.493 15.8082 18.9342 15.7159C18.7336 15.6819 18.5313 15.6637 18.3285 15.6612H18.3211C16.859 15.6612 15.4341 16.592 14.8656 18.1942C14.6123 18.9256 14.5852 19.7361 14.7886 20.4881C15.0096 21.2835 15.4564 21.9376 16.0323 22.4275C17.2214 23.4419 18.9169 23.5111 20.2077 22.7243C20.806 22.3584 21.3347 21.7791 21.6475 21.0789C21.8146 20.7081 21.9247 20.3063 21.9727 19.8916C21.9801 19.8282 21.9702 19.7677 21.995 19.7043V7.92945C21.995 7.38192 22.005 6.83439 21.995 6.28974Z" fill="black"/>
</svg>
