<svg width="18" height="24" viewBox="0 0 18 24" fill="none" xmlns="http://www.w3.org/2000/svg">
<path d="M8.90964 13.5733C9.9024 13.5733 10.8729 13.2963 11.6983 12.7773C12.5238 12.2583 13.1671 11.5207 13.547 10.6576C13.927 9.7946 14.0264 8.84494 13.8327 7.92875C13.639 7.01255 13.1609 6.17098 12.459 5.51044C11.757 4.8499 10.8626 4.40007 9.88889 4.21783C8.9152 4.03559 7.90595 4.12912 6.98876 4.4866C6.07156 4.84408 5.28763 5.44945 4.73608 6.22616C4.18453 7.00287 3.89014 7.91604 3.89014 8.85018C3.89411 10.1017 4.42422 11.3008 5.3647 12.1858C6.30518 13.0707 7.5796 13.5695 8.90964 13.5733V13.5733ZM7.15281 12.1327L7.2281 11.4951C7.26469 11.2427 7.39622 11.011 7.59882 10.842C7.80143 10.673 8.06169 10.578 8.33239 10.5741H9.48688C9.75758 10.578 10.0178 10.673 10.2205 10.842C10.4231 11.011 10.5546 11.2427 10.5912 11.4951L10.6665 12.1327C10.1218 12.4067 9.51469 12.5525 8.89709 12.5578C8.28777 12.5503 7.68939 12.4045 7.15281 12.1327V12.1327ZM8.93473 9.55864H8.89709C8.69729 9.55166 8.50412 9.48939 8.34175 9.37963C8.17937 9.26987 8.05501 9.11748 7.98421 8.94154C7.91342 8.76561 7.89933 8.57393 7.94373 8.3905C7.98812 8.20707 8.08902 8.04003 8.2338 7.91029C8.37858 7.78054 8.56081 7.69386 8.75768 7.66108C8.95456 7.6283 9.15734 7.65087 9.34064 7.72599C9.52395 7.8011 9.67964 7.92541 9.78824 8.08337C9.89683 8.24132 9.95351 8.42591 9.95118 8.61402C9.94166 8.86373 9.83113 9.10058 9.6422 9.27615C9.45327 9.45173 9.20021 9.55278 8.93473 9.55864V9.55864ZM8.90964 5.16616C9.94761 5.16741 10.9427 5.55595 11.6766 6.24656C12.4106 6.93718 12.8235 7.8735 12.8248 8.85018C12.8289 9.3341 12.7286 9.81376 12.5302 10.2602C12.3318 10.7067 12.0393 11.1107 11.6704 11.4479V11.3534C11.6259 11.0283 11.5005 10.7176 11.3042 10.4467C11.1079 10.1759 10.8464 9.9525 10.541 9.7948C10.7489 9.54632 10.8906 9.25466 10.9544 8.94416C11.0182 8.63366 11.0022 8.31331 10.9076 8.00983C10.8131 7.70634 10.6429 7.42852 10.4111 7.19953C10.1792 6.97054 9.89262 6.79701 9.57506 6.69343C9.25751 6.58984 8.91824 6.5592 8.58554 6.60405C8.25284 6.6489 7.93636 6.76795 7.66249 6.95127C7.38863 7.13459 7.16531 7.37686 7.01116 7.65789C6.85701 7.93891 6.7765 8.25054 6.77635 8.56679C6.78012 9.0116 6.93882 9.44298 7.2281 9.7948C6.92266 9.9525 6.66115 10.1759 6.46488 10.4467C6.26862 10.7176 6.14315 11.0283 6.09872 11.3534V11.4479C5.73434 11.1075 5.44484 10.7029 5.24675 10.2571C5.04865 9.8114 4.94586 9.33331 4.94423 8.85018C4.96512 7.87111 5.39117 6.93836 6.13174 6.25034C6.87231 5.56232 7.86895 5.17334 8.90964 5.16616V5.16616Z" fill="black"/>
<path d="M17.2671 0.820923H0.552145C0.406112 0.822155 0.266432 0.877288 0.163167 0.974455C0.0599025 1.07162 0.00130979 1.20305 0 1.34046V22.7597C0.00130979 22.8971 0.0599025 23.0286 0.163167 23.1257C0.266432 23.2229 0.406112 23.278 0.552145 23.2793H17.242C17.388 23.278 17.5277 23.2229 17.631 23.1257C17.7342 23.0286 17.7928 22.8971 17.7941 22.7597V1.34046C17.7961 1.2737 17.784 1.20723 17.7586 1.14489C17.7331 1.08255 17.6948 1.02557 17.6458 0.977263C17.5968 0.928952 17.538 0.89026 17.4731 0.863425C17.4081 0.836591 17.338 0.822145 17.2671 0.820923V0.820923ZM16.7149 22.2402H1.11684V1.83639H16.7275L16.7149 22.2402Z" fill="black"/>
<path d="M4.21633 16.7377H13.5777C13.7241 16.7377 13.8646 16.6829 13.9681 16.5855C14.0717 16.4881 14.1298 16.3559 14.1298 16.2181C14.1298 16.0803 14.0717 15.9482 13.9681 15.8507C13.8646 15.7533 13.7241 15.6986 13.5777 15.6986H4.21633C4.06989 15.6986 3.92945 15.7533 3.8259 15.8507C3.72236 15.9482 3.66418 16.0803 3.66418 16.2181C3.66418 16.3559 3.72236 16.4881 3.8259 16.5855C3.92945 16.6829 4.06989 16.7377 4.21633 16.7377Z" fill="black"/>
<path d="M4.21633 19.9967H13.5777C13.7241 19.9967 13.8646 19.942 13.9681 19.8446C14.0717 19.7471 14.1298 19.615 14.1298 19.4772C14.1298 19.3394 14.0717 19.2072 13.9681 19.1098C13.8646 19.0124 13.7241 18.9576 13.5777 18.9576H4.21633C4.0703 18.9589 3.93062 19.014 3.82735 19.1112C3.72409 19.2083 3.66549 19.3398 3.66418 19.4772C3.66977 19.6133 3.72973 19.7424 3.83209 19.8387C3.93445 19.935 4.07167 19.9915 4.21633 19.9967V19.9967Z" fill="black"/>
</svg>
