<svg width="26" height="24" viewBox="0 0 26 24" fill="none" xmlns="http://www.w3.org/2000/svg">
<path fill-rule="evenodd" clip-rule="evenodd" d="M14.1684 1.51966L17.284 7.79369L24.8607 8.49791C25.9229 8.62596 26.4185 9.84235 25.5688 10.4826L19.904 15.1561L21.4618 21.8782C21.7451 22.8385 20.5413 23.6068 19.6208 23.0946L12.9646 19.6375L6.37924 23.0946C5.45871 23.6068 4.25493 22.8385 4.53817 21.8782L6.096 15.1561L0.43118 10.4826C-0.418543 9.84235 0.0771292 8.62596 1.13928 8.49791L8.71598 7.79369L11.8316 1.51966C11.9239 1.3075 12.0847 1.12537 12.2931 0.997005C12.5015 0.868641 12.7478 0.799988 13 0.799988C13.2522 0.799988 13.4985 0.868641 13.7069 0.997005C13.9153 1.12537 14.0761 1.3075 14.1684 1.51966V1.51966ZM12.9646 3.12018L10.4154 8.43389C10.1322 9.01008 9.5657 9.33018 8.92841 9.3942L2.55549 10.0344L7.29977 13.9397C7.54133 14.1239 7.72201 14.3648 7.82195 14.6359C7.9219 14.907 7.93723 15.1977 7.86626 15.4762L6.52086 21.174L12.1149 18.2291C12.389 18.1028 12.6923 18.037 13 18.037C13.3077 18.037 13.611 18.1028 13.8851 18.2291L19.4791 21.174L18.1337 15.4762C18.0628 15.1977 18.0781 14.907 18.178 14.6359C18.278 14.3648 18.4587 14.1239 18.7002 13.9397L23.4445 10.0344L17.0716 9.3942C16.4343 9.33018 15.8678 9.01008 15.5846 8.43389L12.9646 3.12018Z" fill="black"/>
</svg>
