<svg width="26" height="23" viewBox="0 0 26 23" fill="none" xmlns="http://www.w3.org/2000/svg">
<path d="M11.934 9.4249V13.5303L16.1792 11.4792L11.934 9.4249Z" fill="black"/>
<path d="M24.6348 0.25H1.36524C1.00315 0.25 0.655901 0.396222 0.399869 0.656499C0.143837 0.916776 0 1.26979 0 1.63787V21.3205C0 21.5027 0.0353129 21.6832 0.103923 21.8516C0.172532 22.02 0.273095 22.173 0.399869 22.3018C0.526643 22.4307 0.677146 22.5329 0.842785 22.6027C1.00842 22.6724 1.18595 22.7083 1.36524 22.7083H24.6348C24.814 22.7083 24.9916 22.6724 25.1572 22.6027C25.3229 22.5329 25.4734 22.4307 25.6001 22.3018C25.7269 22.173 25.8275 22.02 25.8961 21.8516C25.9647 21.6832 26 21.5027 26 21.3205V1.63787C26 1.26979 25.8562 0.916776 25.6001 0.656499C25.3441 0.396222 24.9968 0.25 24.6348 0.25V0.25ZM11.4534 2.02933C11.4534 1.93814 11.4711 1.84785 11.5055 1.76364C11.5399 1.67943 11.5904 1.60297 11.654 1.53863C11.7175 1.4743 11.793 1.42338 11.876 1.38877C11.959 1.35417 12.0479 1.33658 12.1376 1.33701H13.8624C13.9521 1.33658 14.041 1.35417 14.124 1.38877C14.207 1.42338 14.2825 1.4743 14.346 1.53863C14.4096 1.60297 14.4601 1.67943 14.4945 1.76364C14.5289 1.84785 14.5466 1.93814 14.5466 2.02933V3.78601C14.5466 3.8772 14.5289 3.96749 14.4945 4.0517C14.4601 4.1359 14.4096 4.21237 14.346 4.2767C14.2825 4.34103 14.207 4.39196 14.124 4.42656C14.041 4.46116 13.9521 4.47875 13.8624 4.47833H12.1376C12.0479 4.47875 11.959 4.46116 11.876 4.42656C11.793 4.39196 11.7175 4.34103 11.654 4.2767C11.5904 4.21237 11.5399 4.1359 11.5055 4.0517C11.4711 3.96749 11.4534 3.8772 11.4534 3.78601V2.02933ZM6.57797 2.02933C6.57797 1.93814 6.59569 1.84785 6.63011 1.76364C6.66453 1.67943 6.71498 1.60297 6.77856 1.53863C6.84214 1.4743 6.91759 1.42338 7.00058 1.38877C7.08358 1.35417 7.17248 1.33658 7.26218 1.33701H8.99021C9.16861 1.3404 9.33858 1.41483 9.46356 1.5443C9.58854 1.67377 9.65854 1.84793 9.65851 2.02933V3.78601C9.65851 3.96962 9.58676 4.14572 9.45904 4.27555C9.33132 4.40539 9.1581 4.47833 8.97748 4.47833H7.26218C7.17248 4.47875 7.08358 4.46116 7.00058 4.42656C6.91759 4.39196 6.84214 4.34103 6.77856 4.2767C6.71498 4.21237 6.66453 4.1359 6.63011 4.0517C6.59569 3.96749 6.57797 3.8772 6.57797 3.78601V2.02933ZM4.79584 20.929C4.79584 21.1126 4.72409 21.2887 4.59637 21.4185C4.46865 21.5484 4.29543 21.6213 4.11481 21.6213H2.38678C2.20587 21.6213 2.03232 21.5485 1.90409 21.4187C1.77587 21.289 1.70341 21.1129 1.70257 20.929V19.1723C1.70341 18.9884 1.77587 18.8123 1.90409 18.6826C2.03232 18.5528 2.20587 18.48 2.38678 18.48H4.11481C4.29543 18.48 4.46865 18.5529 4.59637 18.6828C4.72409 18.8126 4.79584 18.9887 4.79584 19.1723V20.929ZM4.79584 3.78277C4.79584 3.96639 4.72409 4.14248 4.59637 4.27232C4.46865 4.40215 4.29543 4.47509 4.11481 4.47509H2.38678C2.20641 4.4751 2.03334 4.40271 1.90521 4.27366C1.77707 4.14462 1.70425 3.96936 1.70257 3.78601V2.02933C1.70341 1.84542 1.77587 1.66933 1.90409 1.53958C2.03232 1.40984 2.20587 1.337 2.38678 1.33701H4.11481C4.29543 1.33701 4.46865 1.40995 4.59637 1.53978C4.72409 1.66962 4.79584 1.84571 4.79584 2.02933V3.78277ZM9.65851 20.929C9.65851 21.0202 9.64079 21.1105 9.60636 21.1947C9.57194 21.2789 9.52149 21.3554 9.45791 21.4197C9.39434 21.484 9.31889 21.535 9.23589 21.5696C9.1529 21.6042 9.064 21.6218 8.9743 21.6213H7.26218C7.17248 21.6218 7.08358 21.6042 7.00058 21.5696C6.91759 21.535 6.84214 21.484 6.77856 21.4197C6.71498 21.3554 6.66453 21.2789 6.63011 21.1947C6.59569 21.1105 6.57797 21.0202 6.57797 20.929V19.1723C6.57797 19.0811 6.59569 18.9908 6.63011 18.9066C6.66453 18.8224 6.71498 18.746 6.77856 18.6816C6.84214 18.6173 6.91759 18.5664 7.00058 18.5318C7.08358 18.4972 7.17248 18.4796 7.26218 18.48H8.98703C9.16599 18.4826 9.33677 18.5566 9.46243 18.6862C9.58809 18.8157 9.65852 18.9904 9.65851 19.1723V20.929ZM8.50967 11.4792C8.5103 10.4882 8.79994 9.51962 9.34199 8.69596C9.88403 7.87229 10.6541 7.23049 11.5549 6.8517C12.4557 6.47291 13.4468 6.37413 14.4028 6.56786C15.3588 6.76158 16.2369 7.23911 16.926 7.94007C17.6151 8.64103 18.0842 9.53395 18.2742 10.5059C18.4641 11.4779 18.3663 12.4854 17.9931 13.4009C17.6199 14.3164 16.9881 15.0988 16.1775 15.6493C15.3669 16.1998 14.414 16.4936 13.4392 16.4936C12.1315 16.4928 10.8777 15.9641 9.95329 15.0238C9.02892 14.0835 8.50967 12.8085 8.50967 11.4792V11.4792ZM14.5562 20.929C14.5562 21.1126 14.4844 21.2887 14.3567 21.4185C14.229 21.5484 14.0558 21.6213 13.8752 21.6213H12.1344C11.9538 21.6213 11.7806 21.5484 11.6528 21.4185C11.5251 21.2887 11.4534 21.1126 11.4534 20.929V19.1723C11.4534 18.9887 11.5251 18.8126 11.6528 18.6828C11.7806 18.5529 11.9538 18.48 12.1344 18.48H13.8624C14.043 18.48 14.2163 18.5529 14.344 18.6828C14.4717 18.8126 14.5435 18.9887 14.5435 19.1723L14.5562 20.929ZM19.4316 20.929C19.4316 21.1126 19.3598 21.2887 19.2321 21.4185C19.1044 21.5484 18.9312 21.6213 18.7506 21.6213H17.013C16.834 21.6188 16.6632 21.5447 16.5376 21.4152C16.4119 21.2856 16.3415 21.111 16.3415 20.929V19.1723C16.3415 19.0811 16.3592 18.9908 16.3936 18.9066C16.4281 18.8224 16.4785 18.746 16.5421 18.6816C16.6057 18.6173 16.6811 18.5664 16.7641 18.5318C16.8471 18.4972 16.936 18.4796 17.0257 18.48H18.7506C18.9312 18.48 19.1044 18.5529 19.2321 18.6828C19.3598 18.8126 19.4316 18.9887 19.4316 19.1723V20.929ZM19.4316 3.78277C19.4316 3.96639 19.3598 4.14248 19.2321 4.27232C19.1044 4.40215 18.9312 4.47509 18.7506 4.47509H17.013C16.8346 4.47255 16.6643 4.39893 16.5387 4.27007C16.4131 4.14121 16.3423 3.96739 16.3415 3.78601V2.02933C16.3415 1.93814 16.3592 1.84785 16.3936 1.76364C16.4281 1.67943 16.4785 1.60297 16.5421 1.53863C16.6057 1.4743 16.6811 1.42338 16.7641 1.38877C16.8471 1.35417 16.936 1.33658 17.0257 1.33701H18.7506C18.9312 1.33701 19.1044 1.40995 19.2321 1.53978C19.3598 1.66962 19.4316 1.84571 19.4316 2.02933V3.78277ZM24.2974 20.929C24.2974 21.1126 24.2257 21.2887 24.098 21.4185C23.9702 21.5484 23.797 21.6213 23.6164 21.6213H21.8852C21.7046 21.6213 21.5313 21.5484 21.4036 21.4185C21.2759 21.2887 21.2042 21.1126 21.2042 20.929V19.1723C21.2042 18.9887 21.2759 18.8126 21.4036 18.6828C21.5313 18.5529 21.7046 18.48 21.8852 18.48H23.6132C23.7029 18.4796 23.7918 18.4972 23.8748 18.5318C23.9578 18.5664 24.0333 18.6173 24.0968 18.6816C24.1604 18.746 24.2109 18.8224 24.2453 18.9066C24.2797 18.9908 24.2974 19.0811 24.2974 19.1723V20.929ZM24.2974 3.78277C24.2974 3.96639 24.2257 4.14248 24.098 4.27232C23.9702 4.40215 23.797 4.47509 23.6164 4.47509H21.8852C21.7046 4.47509 21.5313 4.40215 21.4036 4.27232C21.2759 4.14248 21.2042 3.96639 21.2042 3.78277V2.02933C21.2042 1.84571 21.2759 1.66962 21.4036 1.53978C21.5313 1.40995 21.7046 1.33701 21.8852 1.33701H23.6132C23.7029 1.33658 23.7918 1.35417 23.8748 1.38877C23.9578 1.42338 24.0333 1.4743 24.0968 1.53863C24.1604 1.60297 24.2109 1.67943 24.2453 1.76364C24.2797 1.84785 24.2974 1.93814 24.2974 2.02933V3.78277Z" fill="black"/>
</svg>
